<mxfile host="app.diagrams.net" modified="2022-06-02T08:02:01.596Z" agent="5.0 (Macintosh; Intel Mac OS X 10_15_7) AppleWebKit/537.36 (KHTML, like Gecko) Chrome/101.0.4951.64 Safari/537.36" etag="ZCTYZFoh2ZyMX8162yru" version="18.0.8" type="github">
  <diagram id="NCbEMBi97kCgvutlftuF" name="Page-1">
    <mxGraphModel dx="1731" dy="965" grid="0" gridSize="10" guides="1" tooltips="1" connect="1" arrows="1" fold="1" page="1" pageScale="1" pageWidth="3300" pageHeight="4681" math="0" shadow="0">
      <root>
        <mxCell id="0" />
        <mxCell id="1" parent="0" />
        <mxCell id="dBxSges8WogvZSutFa10-1" value="" style="rounded=0;whiteSpace=wrap;html=1;" parent="1" vertex="1">
          <mxGeometry x="250" y="640" width="120" height="60" as="geometry" />
        </mxCell>
        <mxCell id="I9sJd5rkt-ugpkNnUwdr-50" style="edgeStyle=orthogonalEdgeStyle;rounded=0;orthogonalLoop=1;jettySize=auto;html=1;exitX=0.5;exitY=0;exitDx=0;exitDy=0;entryX=0.5;entryY=1;entryDx=0;entryDy=0;dashed=1;" edge="1" parent="1" source="I9sJd5rkt-ugpkNnUwdr-1" target="I9sJd5rkt-ugpkNnUwdr-49">
          <mxGeometry relative="1" as="geometry" />
        </mxCell>
        <mxCell id="I9sJd5rkt-ugpkNnUwdr-1" value="标签元数据配置" style="rounded=1;whiteSpace=wrap;html=1;" vertex="1" parent="1">
          <mxGeometry x="1023" y="725" width="100" height="30" as="geometry" />
        </mxCell>
        <mxCell id="I9sJd5rkt-ugpkNnUwdr-4" value="" style="rounded=0;whiteSpace=wrap;html=1;fillColor=#dae8fc;strokeColor=#6c8ebf;" vertex="1" parent="1">
          <mxGeometry x="833" y="707" width="160" height="60" as="geometry" />
        </mxCell>
        <mxCell id="I9sJd5rkt-ugpkNnUwdr-5" value="自定义行为标签" style="rounded=0;whiteSpace=wrap;html=1;fillColor=#99CCFF;strokeColor=#6c8ebf;" vertex="1" parent="1">
          <mxGeometry x="865" y="697" width="96" height="20" as="geometry" />
        </mxCell>
        <mxCell id="I9sJd5rkt-ugpkNnUwdr-12" style="edgeStyle=orthogonalEdgeStyle;rounded=0;orthogonalLoop=1;jettySize=auto;html=1;exitX=0;exitY=0.5;exitDx=0;exitDy=0;entryX=1;entryY=0.5;entryDx=0;entryDy=0;" edge="1" parent="1" source="I9sJd5rkt-ugpkNnUwdr-6" target="I9sJd5rkt-ugpkNnUwdr-10">
          <mxGeometry relative="1" as="geometry" />
        </mxCell>
        <mxCell id="I9sJd5rkt-ugpkNnUwdr-6" value="行为字段" style="rounded=0;whiteSpace=wrap;html=1;" vertex="1" parent="1">
          <mxGeometry x="846" y="730" width="60" height="20" as="geometry" />
        </mxCell>
        <mxCell id="I9sJd5rkt-ugpkNnUwdr-11" style="edgeStyle=orthogonalEdgeStyle;rounded=0;orthogonalLoop=1;jettySize=auto;html=1;exitX=1;exitY=0.5;exitDx=0;exitDy=0;" edge="1" parent="1" source="I9sJd5rkt-ugpkNnUwdr-8" target="I9sJd5rkt-ugpkNnUwdr-1">
          <mxGeometry relative="1" as="geometry" />
        </mxCell>
        <mxCell id="I9sJd5rkt-ugpkNnUwdr-8" value="属性字段" style="rounded=0;whiteSpace=wrap;html=1;" vertex="1" parent="1">
          <mxGeometry x="918" y="730" width="60" height="20" as="geometry" />
        </mxCell>
        <mxCell id="I9sJd5rkt-ugpkNnUwdr-47" style="edgeStyle=orthogonalEdgeStyle;rounded=0;orthogonalLoop=1;jettySize=auto;html=1;exitX=0.5;exitY=0;exitDx=0;exitDy=0;entryX=0.5;entryY=1;entryDx=0;entryDy=0;dashed=1;" edge="1" parent="1" source="I9sJd5rkt-ugpkNnUwdr-10" target="I9sJd5rkt-ugpkNnUwdr-48">
          <mxGeometry relative="1" as="geometry" />
        </mxCell>
        <mxCell id="I9sJd5rkt-ugpkNnUwdr-10" value="Kconf" style="rounded=1;whiteSpace=wrap;html=1;" vertex="1" parent="1">
          <mxGeometry x="703" y="725" width="100" height="30" as="geometry" />
        </mxCell>
        <mxCell id="I9sJd5rkt-ugpkNnUwdr-13" style="rounded=0;orthogonalLoop=1;jettySize=auto;html=1;exitX=0;exitY=1;exitDx=0;exitDy=0;entryX=1;entryY=0;entryDx=0;entryDy=0;endArrow=none;endFill=0;" edge="1" parent="1" source="I9sJd5rkt-ugpkNnUwdr-15" target="I9sJd5rkt-ugpkNnUwdr-18">
          <mxGeometry relative="1" as="geometry" />
        </mxCell>
        <mxCell id="I9sJd5rkt-ugpkNnUwdr-14" style="rounded=0;orthogonalLoop=1;jettySize=auto;html=1;exitX=1;exitY=1;exitDx=0;exitDy=0;endArrow=none;endFill=0;" edge="1" parent="1" source="I9sJd5rkt-ugpkNnUwdr-15" target="I9sJd5rkt-ugpkNnUwdr-21">
          <mxGeometry relative="1" as="geometry" />
        </mxCell>
        <mxCell id="I9sJd5rkt-ugpkNnUwdr-15" value="&lt;font style=&quot;font-size: 42px;&quot;&gt;OR-1&lt;/font&gt;" style="ellipse;whiteSpace=wrap;html=1;aspect=fixed;fontSize=42;" vertex="1" parent="1">
          <mxGeometry x="986.5" y="1560" width="153" height="153" as="geometry" />
        </mxCell>
        <mxCell id="I9sJd5rkt-ugpkNnUwdr-16" style="edgeStyle=none;rounded=0;orthogonalLoop=1;jettySize=auto;html=1;exitX=0;exitY=1;exitDx=0;exitDy=0;endArrow=none;endFill=0;" edge="1" parent="1" source="I9sJd5rkt-ugpkNnUwdr-18" target="I9sJd5rkt-ugpkNnUwdr-22">
          <mxGeometry relative="1" as="geometry" />
        </mxCell>
        <mxCell id="I9sJd5rkt-ugpkNnUwdr-17" style="rounded=0;orthogonalLoop=1;jettySize=auto;html=1;exitX=1;exitY=1;exitDx=0;exitDy=0;fontSize=48;fontColor=#000000;endArrow=none;endFill=0;" edge="1" parent="1" source="I9sJd5rkt-ugpkNnUwdr-18" target="I9sJd5rkt-ugpkNnUwdr-27">
          <mxGeometry relative="1" as="geometry" />
        </mxCell>
        <mxCell id="I9sJd5rkt-ugpkNnUwdr-18" value="&lt;span style=&quot;font-size: 42px;&quot;&gt;OR&lt;/span&gt;&lt;span style=&quot;font-size: 42px;&quot;&gt;-2&lt;/span&gt;" style="ellipse;whiteSpace=wrap;html=1;aspect=fixed;fontSize=42;" vertex="1" parent="1">
          <mxGeometry x="482" y="1847.0000000000018" width="153" height="153" as="geometry" />
        </mxCell>
        <mxCell id="I9sJd5rkt-ugpkNnUwdr-19" style="edgeStyle=none;rounded=0;orthogonalLoop=1;jettySize=auto;html=1;exitX=0.079;exitY=0.752;exitDx=0;exitDy=0;endArrow=none;endFill=0;exitPerimeter=0;" edge="1" parent="1" source="I9sJd5rkt-ugpkNnUwdr-21" target="I9sJd5rkt-ugpkNnUwdr-25">
          <mxGeometry relative="1" as="geometry">
            <mxPoint x="1526.8700000000172" y="2064.000000000001" as="sourcePoint" />
          </mxGeometry>
        </mxCell>
        <mxCell id="I9sJd5rkt-ugpkNnUwdr-20" style="edgeStyle=none;rounded=0;orthogonalLoop=1;jettySize=auto;html=1;exitX=0.5;exitY=1;exitDx=0;exitDy=0;endArrow=none;endFill=0;" edge="1" parent="1" source="I9sJd5rkt-ugpkNnUwdr-21" target="I9sJd5rkt-ugpkNnUwdr-30">
          <mxGeometry relative="1" as="geometry">
            <mxPoint x="1758.426908829464" y="2146.1346781155407" as="targetPoint" />
          </mxGeometry>
        </mxCell>
        <mxCell id="I9sJd5rkt-ugpkNnUwdr-21" value="OR&lt;span style=&quot;font-size: 42px;&quot;&gt;-3&lt;/span&gt;" style="ellipse;whiteSpace=wrap;html=1;aspect=fixed;fontSize=42;" vertex="1" parent="1">
          <mxGeometry x="1516.87" y="1857.0000000000018" width="153" height="153" as="geometry" />
        </mxCell>
        <mxCell id="I9sJd5rkt-ugpkNnUwdr-22" value="&lt;font style=&quot;font-size: 36px&quot;&gt;label-1&lt;/font&gt;" style="ellipse;whiteSpace=wrap;html=1;aspect=fixed;fillColor=#fff2cc;strokeColor=#d6b656;" vertex="1" parent="1">
          <mxGeometry x="290.9999999999999" y="2084.000000000002" width="153" height="153" as="geometry" />
        </mxCell>
        <mxCell id="I9sJd5rkt-ugpkNnUwdr-23" style="edgeStyle=none;rounded=0;orthogonalLoop=1;jettySize=auto;html=1;exitX=1;exitY=1;exitDx=0;exitDy=0;endArrow=none;endFill=0;" edge="1" parent="1" source="I9sJd5rkt-ugpkNnUwdr-25" target="I9sJd5rkt-ugpkNnUwdr-26">
          <mxGeometry relative="1" as="geometry" />
        </mxCell>
        <mxCell id="I9sJd5rkt-ugpkNnUwdr-24" style="edgeStyle=none;rounded=0;orthogonalLoop=1;jettySize=auto;html=1;exitX=0;exitY=1;exitDx=0;exitDy=0;fontSize=48;fontColor=#000000;endArrow=none;endFill=0;" edge="1" parent="1" source="I9sJd5rkt-ugpkNnUwdr-25" target="I9sJd5rkt-ugpkNnUwdr-35">
          <mxGeometry relative="1" as="geometry" />
        </mxCell>
        <mxCell id="I9sJd5rkt-ugpkNnUwdr-25" value="&lt;span style=&quot;font-size: 42px;&quot;&gt;AND-4&lt;/span&gt;" style="ellipse;whiteSpace=wrap;html=1;aspect=fixed;fontSize=42;" vertex="1" parent="1">
          <mxGeometry x="1068" y="2081.000000000002" width="153" height="153" as="geometry" />
        </mxCell>
        <mxCell id="I9sJd5rkt-ugpkNnUwdr-26" value="&lt;span style=&quot;font-size: 36px&quot;&gt;label-3&lt;/span&gt;" style="ellipse;whiteSpace=wrap;html=1;aspect=fixed;fillColor=#fff2cc;strokeColor=#d6b656;" vertex="1" parent="1">
          <mxGeometry x="1181" y="2315.000000000002" width="153" height="153" as="geometry" />
        </mxCell>
        <mxCell id="I9sJd5rkt-ugpkNnUwdr-27" value="&lt;font style=&quot;font-size: 36px&quot;&gt;label-2&lt;/font&gt;" style="ellipse;whiteSpace=wrap;html=1;aspect=fixed;fillColor=#fff2cc;strokeColor=#d6b656;" vertex="1" parent="1">
          <mxGeometry x="653" y="2094.000000000002" width="153" height="153" as="geometry" />
        </mxCell>
        <mxCell id="I9sJd5rkt-ugpkNnUwdr-28" style="edgeStyle=none;rounded=0;orthogonalLoop=1;jettySize=auto;html=1;exitX=1;exitY=1;exitDx=0;exitDy=0;endArrow=none;endFill=0;" edge="1" parent="1" source="I9sJd5rkt-ugpkNnUwdr-30" target="I9sJd5rkt-ugpkNnUwdr-32">
          <mxGeometry relative="1" as="geometry" />
        </mxCell>
        <mxCell id="I9sJd5rkt-ugpkNnUwdr-29" style="edgeStyle=none;rounded=0;orthogonalLoop=1;jettySize=auto;html=1;exitX=0;exitY=1;exitDx=0;exitDy=0;endArrow=none;endFill=0;" edge="1" parent="1" source="I9sJd5rkt-ugpkNnUwdr-30" target="I9sJd5rkt-ugpkNnUwdr-31">
          <mxGeometry relative="1" as="geometry" />
        </mxCell>
        <mxCell id="I9sJd5rkt-ugpkNnUwdr-30" value="&lt;span style=&quot;font-size: 42px;&quot;&gt;AND-5&lt;/span&gt;" style="ellipse;whiteSpace=wrap;html=1;aspect=fixed;fontSize=42;" vertex="1" parent="1">
          <mxGeometry x="1517.37" y="2084.000000000002" width="153" height="153" as="geometry" />
        </mxCell>
        <mxCell id="I9sJd5rkt-ugpkNnUwdr-31" value="&lt;span style=&quot;font-size: 36px&quot;&gt;label-6&lt;/span&gt;" style="ellipse;whiteSpace=wrap;html=1;aspect=fixed;fillColor=#fff2cc;strokeColor=#d6b656;" vertex="1" parent="1">
          <mxGeometry x="1396" y="2320.000000000002" width="153" height="153" as="geometry" />
        </mxCell>
        <mxCell id="I9sJd5rkt-ugpkNnUwdr-32" value="&lt;span style=&quot;font-size: 36px&quot;&gt;label-7&lt;/span&gt;" style="ellipse;whiteSpace=wrap;html=1;aspect=fixed;fillColor=#fff2cc;strokeColor=#d6b656;" vertex="1" parent="1">
          <mxGeometry x="1651" y="2327.000000000002" width="153" height="153" as="geometry" />
        </mxCell>
        <mxCell id="I9sJd5rkt-ugpkNnUwdr-33" style="edgeStyle=none;rounded=0;orthogonalLoop=1;jettySize=auto;html=1;exitX=0;exitY=1;exitDx=0;exitDy=0;endArrow=none;endFill=0;" edge="1" parent="1" source="I9sJd5rkt-ugpkNnUwdr-35" target="I9sJd5rkt-ugpkNnUwdr-36">
          <mxGeometry relative="1" as="geometry" />
        </mxCell>
        <mxCell id="I9sJd5rkt-ugpkNnUwdr-34" style="edgeStyle=none;rounded=0;orthogonalLoop=1;jettySize=auto;html=1;exitX=1;exitY=1;exitDx=0;exitDy=0;fontSize=48;fontColor=#000000;endArrow=none;endFill=0;" edge="1" parent="1" source="I9sJd5rkt-ugpkNnUwdr-35" target="I9sJd5rkt-ugpkNnUwdr-37">
          <mxGeometry relative="1" as="geometry" />
        </mxCell>
        <mxCell id="I9sJd5rkt-ugpkNnUwdr-35" value="&lt;span style=&quot;font-size: 42px;&quot;&gt;AND-6&lt;/span&gt;" style="ellipse;whiteSpace=wrap;html=1;aspect=fixed;fontSize=42;" vertex="1" parent="1">
          <mxGeometry x="952" y="2299.000000000002" width="153" height="153" as="geometry" />
        </mxCell>
        <mxCell id="I9sJd5rkt-ugpkNnUwdr-36" value="&lt;span style=&quot;font-size: 36px&quot;&gt;label-4&lt;/span&gt;" style="ellipse;whiteSpace=wrap;html=1;aspect=fixed;fillColor=#fff2cc;strokeColor=#d6b656;" vertex="1" parent="1">
          <mxGeometry x="826" y="2507.000000000002" width="153" height="153" as="geometry" />
        </mxCell>
        <mxCell id="I9sJd5rkt-ugpkNnUwdr-37" value="&lt;span style=&quot;font-size: 36px&quot;&gt;label-5&lt;/span&gt;" style="ellipse;whiteSpace=wrap;html=1;aspect=fixed;fillColor=#fff2cc;strokeColor=#d6b656;" vertex="1" parent="1">
          <mxGeometry x="1071" y="2519.000000000002" width="153" height="153" as="geometry" />
        </mxCell>
        <mxCell id="I9sJd5rkt-ugpkNnUwdr-38" style="rounded=0;orthogonalLoop=1;jettySize=auto;html=1;fontSize=48;fontColor=#000000;endArrow=none;endFill=0;" edge="1" parent="1" source="I9sJd5rkt-ugpkNnUwdr-21" target="I9sJd5rkt-ugpkNnUwdr-39">
          <mxGeometry relative="1" as="geometry">
            <mxPoint x="1479.5936687607737" y="1937.5936687607755" as="sourcePoint" />
          </mxGeometry>
        </mxCell>
        <mxCell id="I9sJd5rkt-ugpkNnUwdr-39" value="&lt;font style=&quot;font-size: 36px&quot;&gt;label-8&lt;/font&gt;" style="ellipse;whiteSpace=wrap;html=1;aspect=fixed;fillColor=#fff2cc;strokeColor=#d6b656;" vertex="1" parent="1">
          <mxGeometry x="1915" y="2098.000000000002" width="153" height="153" as="geometry" />
        </mxCell>
        <mxCell id="I9sJd5rkt-ugpkNnUwdr-40" style="edgeStyle=none;rounded=0;orthogonalLoop=1;jettySize=auto;html=1;exitX=1;exitY=0.75;exitDx=0;exitDy=0;fontSize=42;fontColor=#FF0000;endArrow=none;endFill=0;" edge="1" parent="1">
          <mxGeometry relative="1" as="geometry">
            <mxPoint x="680.0000000000009" y="1972.75" as="sourcePoint" />
            <mxPoint x="680.0000000000009" y="1972.75" as="targetPoint" />
          </mxGeometry>
        </mxCell>
        <mxCell id="I9sJd5rkt-ugpkNnUwdr-41" value="行为明细表" style="swimlane;" vertex="1" parent="1">
          <mxGeometry x="745" y="574" width="346" height="73" as="geometry" />
        </mxCell>
        <mxCell id="I9sJd5rkt-ugpkNnUwdr-46" value="&lt;span style=&quot;&quot;&gt;uid&amp;nbsp; &amp;nbsp; &amp;nbsp;behave&amp;nbsp; &amp;nbsp; &amp;nbsp; photoId&amp;nbsp; &amp;nbsp;&lt;/span&gt;&lt;span style=&quot;&quot;&gt;attribute1&amp;nbsp; attribute2 ……&lt;/span&gt;" style="text;html=1;strokeColor=none;fillColor=none;align=center;verticalAlign=middle;whiteSpace=wrap;rounded=0;" vertex="1" parent="I9sJd5rkt-ugpkNnUwdr-41">
          <mxGeometry x="-10" y="33" width="390" height="30" as="geometry" />
        </mxCell>
        <mxCell id="I9sJd5rkt-ugpkNnUwdr-48" value="" style="rounded=0;whiteSpace=wrap;html=1;fillColor=none;" vertex="1" parent="I9sJd5rkt-ugpkNnUwdr-41">
          <mxGeometry x="75" y="36" width="47" height="24" as="geometry" />
        </mxCell>
        <mxCell id="I9sJd5rkt-ugpkNnUwdr-49" value="" style="rounded=0;whiteSpace=wrap;html=1;fillColor=none;" vertex="1" parent="I9sJd5rkt-ugpkNnUwdr-41">
          <mxGeometry x="135" y="36" width="190" height="24" as="geometry" />
        </mxCell>
        <mxCell id="I9sJd5rkt-ugpkNnUwdr-52" style="edgeStyle=orthogonalEdgeStyle;rounded=0;orthogonalLoop=1;jettySize=auto;html=1;exitX=0.5;exitY=0;exitDx=0;exitDy=0;entryX=0.5;entryY=1;entryDx=0;entryDy=0;dashed=1;" edge="1" parent="1" source="I9sJd5rkt-ugpkNnUwdr-53" target="I9sJd5rkt-ugpkNnUwdr-65">
          <mxGeometry relative="1" as="geometry" />
        </mxCell>
        <mxCell id="I9sJd5rkt-ugpkNnUwdr-53" value="标签元数据配置" style="rounded=1;whiteSpace=wrap;html=1;" vertex="1" parent="1">
          <mxGeometry x="1020" y="1092" width="100" height="30" as="geometry" />
        </mxCell>
        <mxCell id="I9sJd5rkt-ugpkNnUwdr-54" value="" style="rounded=0;whiteSpace=wrap;html=1;fillColor=#dae8fc;strokeColor=#6c8ebf;" vertex="1" parent="1">
          <mxGeometry x="830" y="1074" width="160" height="60" as="geometry" />
        </mxCell>
        <mxCell id="I9sJd5rkt-ugpkNnUwdr-55" value="自定义行为标签" style="rounded=0;whiteSpace=wrap;html=1;fillColor=#99CCFF;strokeColor=#6c8ebf;" vertex="1" parent="1">
          <mxGeometry x="862" y="1064" width="96" height="20" as="geometry" />
        </mxCell>
        <mxCell id="I9sJd5rkt-ugpkNnUwdr-56" style="edgeStyle=orthogonalEdgeStyle;rounded=0;orthogonalLoop=1;jettySize=auto;html=1;exitX=0;exitY=0.5;exitDx=0;exitDy=0;entryX=1;entryY=0.5;entryDx=0;entryDy=0;" edge="1" parent="1" source="I9sJd5rkt-ugpkNnUwdr-57" target="I9sJd5rkt-ugpkNnUwdr-61">
          <mxGeometry relative="1" as="geometry" />
        </mxCell>
        <mxCell id="I9sJd5rkt-ugpkNnUwdr-57" value="行为字段" style="rounded=0;whiteSpace=wrap;html=1;" vertex="1" parent="1">
          <mxGeometry x="843" y="1097" width="60" height="20" as="geometry" />
        </mxCell>
        <mxCell id="I9sJd5rkt-ugpkNnUwdr-58" style="edgeStyle=orthogonalEdgeStyle;rounded=0;orthogonalLoop=1;jettySize=auto;html=1;exitX=1;exitY=0.5;exitDx=0;exitDy=0;" edge="1" parent="1" source="I9sJd5rkt-ugpkNnUwdr-59" target="I9sJd5rkt-ugpkNnUwdr-53">
          <mxGeometry relative="1" as="geometry" />
        </mxCell>
        <mxCell id="I9sJd5rkt-ugpkNnUwdr-59" value="属性字段" style="rounded=0;whiteSpace=wrap;html=1;" vertex="1" parent="1">
          <mxGeometry x="915" y="1097" width="60" height="20" as="geometry" />
        </mxCell>
        <mxCell id="I9sJd5rkt-ugpkNnUwdr-60" style="edgeStyle=orthogonalEdgeStyle;rounded=0;orthogonalLoop=1;jettySize=auto;html=1;exitX=0.5;exitY=0;exitDx=0;exitDy=0;entryX=0.5;entryY=1;entryDx=0;entryDy=0;dashed=1;" edge="1" parent="1" source="I9sJd5rkt-ugpkNnUwdr-61" target="I9sJd5rkt-ugpkNnUwdr-64">
          <mxGeometry relative="1" as="geometry" />
        </mxCell>
        <mxCell id="I9sJd5rkt-ugpkNnUwdr-61" value="Kconf" style="rounded=1;whiteSpace=wrap;html=1;" vertex="1" parent="1">
          <mxGeometry x="700" y="1092" width="100" height="30" as="geometry" />
        </mxCell>
        <mxCell id="I9sJd5rkt-ugpkNnUwdr-62" value="行为明细表" style="swimlane;" vertex="1" parent="1">
          <mxGeometry x="742" y="941" width="346" height="73" as="geometry" />
        </mxCell>
        <mxCell id="I9sJd5rkt-ugpkNnUwdr-63" value="&lt;span style=&quot;&quot;&gt;uid&amp;nbsp; &amp;nbsp; &amp;nbsp;behave&amp;nbsp; &amp;nbsp; &amp;nbsp; photoId&amp;nbsp; &amp;nbsp;&lt;/span&gt;&lt;span style=&quot;&quot;&gt;attribute1&amp;nbsp; attribute2 ……&lt;/span&gt;" style="text;html=1;strokeColor=none;fillColor=none;align=center;verticalAlign=middle;whiteSpace=wrap;rounded=0;" vertex="1" parent="I9sJd5rkt-ugpkNnUwdr-62">
          <mxGeometry x="-10" y="33" width="390" height="30" as="geometry" />
        </mxCell>
        <mxCell id="I9sJd5rkt-ugpkNnUwdr-64" value="" style="rounded=0;whiteSpace=wrap;html=1;fillColor=none;" vertex="1" parent="I9sJd5rkt-ugpkNnUwdr-62">
          <mxGeometry x="75" y="36" width="47" height="24" as="geometry" />
        </mxCell>
        <mxCell id="I9sJd5rkt-ugpkNnUwdr-65" value="" style="rounded=0;whiteSpace=wrap;html=1;fillColor=none;" vertex="1" parent="I9sJd5rkt-ugpkNnUwdr-62">
          <mxGeometry x="135" y="36" width="190" height="24" as="geometry" />
        </mxCell>
        <mxCell id="I9sJd5rkt-ugpkNnUwdr-81" style="edgeStyle=none;rounded=0;orthogonalLoop=1;jettySize=auto;html=1;exitX=0;exitY=1;exitDx=0;exitDy=0;endArrow=none;endFill=0;" edge="1" parent="1" source="I9sJd5rkt-ugpkNnUwdr-83" target="I9sJd5rkt-ugpkNnUwdr-84">
          <mxGeometry relative="1" as="geometry" />
        </mxCell>
        <mxCell id="I9sJd5rkt-ugpkNnUwdr-82" style="rounded=0;orthogonalLoop=1;jettySize=auto;html=1;exitX=1;exitY=1;exitDx=0;exitDy=0;fontSize=48;fontColor=#000000;endArrow=none;endFill=0;" edge="1" parent="1" source="I9sJd5rkt-ugpkNnUwdr-83" target="I9sJd5rkt-ugpkNnUwdr-85">
          <mxGeometry relative="1" as="geometry" />
        </mxCell>
        <mxCell id="I9sJd5rkt-ugpkNnUwdr-83" value="relation" style="ellipse;whiteSpace=wrap;html=1;aspect=fixed;fontSize=16;" vertex="1" parent="1">
          <mxGeometry x="2042" y="566" width="72" height="72" as="geometry" />
        </mxCell>
        <mxCell id="I9sJd5rkt-ugpkNnUwdr-106" style="edgeStyle=none;rounded=0;orthogonalLoop=1;jettySize=auto;html=1;exitX=0;exitY=1;exitDx=0;exitDy=0;fontSize=16;dashed=1;" edge="1" parent="1" source="I9sJd5rkt-ugpkNnUwdr-84">
          <mxGeometry relative="1" as="geometry">
            <mxPoint x="1865.125" y="804.375" as="targetPoint" />
          </mxGeometry>
        </mxCell>
        <mxCell id="I9sJd5rkt-ugpkNnUwdr-84" value="&lt;font style=&quot;font-size: 16px;&quot;&gt;behave&lt;/font&gt;" style="ellipse;whiteSpace=wrap;html=1;aspect=fixed;fillColor=#dae8fc;strokeColor=#6c8ebf;" vertex="1" parent="1">
          <mxGeometry x="1926" y="666" width="72" height="72" as="geometry" />
        </mxCell>
        <mxCell id="I9sJd5rkt-ugpkNnUwdr-107" style="edgeStyle=none;rounded=0;orthogonalLoop=1;jettySize=auto;html=1;exitX=0.5;exitY=1;exitDx=0;exitDy=0;entryX=0.5;entryY=0;entryDx=0;entryDy=0;dashed=1;fontSize=16;" edge="1" parent="1" source="I9sJd5rkt-ugpkNnUwdr-85" target="I9sJd5rkt-ugpkNnUwdr-104">
          <mxGeometry relative="1" as="geometry" />
        </mxCell>
        <mxCell id="I9sJd5rkt-ugpkNnUwdr-85" value="&lt;font style=&quot;font-size: 16px;&quot;&gt;other&lt;/font&gt;" style="ellipse;whiteSpace=wrap;html=1;aspect=fixed;fillColor=#fff2cc;strokeColor=#d6b656;" vertex="1" parent="1">
          <mxGeometry x="2162" y="670.5" width="73" height="73" as="geometry" />
        </mxCell>
        <mxCell id="I9sJd5rkt-ugpkNnUwdr-86" style="edgeStyle=none;rounded=0;orthogonalLoop=1;jettySize=auto;html=1;exitX=1;exitY=0.75;exitDx=0;exitDy=0;fontSize=42;fontColor=#FF0000;endArrow=none;endFill=0;" edge="1" parent="1">
          <mxGeometry relative="1" as="geometry">
            <mxPoint x="2315.000000000001" y="492.75" as="sourcePoint" />
            <mxPoint x="2315.000000000001" y="492.75" as="targetPoint" />
          </mxGeometry>
        </mxCell>
        <mxCell id="I9sJd5rkt-ugpkNnUwdr-87" value="" style="rounded=0;whiteSpace=wrap;html=1;fillColor=#dae8fc;strokeColor=#6c8ebf;" vertex="1" parent="1">
          <mxGeometry x="1789" y="824" width="160" height="60" as="geometry" />
        </mxCell>
        <mxCell id="I9sJd5rkt-ugpkNnUwdr-88" value="自定义行为标签" style="rounded=0;whiteSpace=wrap;html=1;fillColor=#99CCFF;strokeColor=#6c8ebf;" vertex="1" parent="1">
          <mxGeometry x="1821" y="814" width="96" height="20" as="geometry" />
        </mxCell>
        <mxCell id="I9sJd5rkt-ugpkNnUwdr-93" style="rounded=0;orthogonalLoop=1;jettySize=auto;html=1;exitX=0.5;exitY=1;exitDx=0;exitDy=0;entryX=0.465;entryY=0.017;entryDx=0;entryDy=0;entryPerimeter=0;" edge="1" parent="1" source="I9sJd5rkt-ugpkNnUwdr-89" target="I9sJd5rkt-ugpkNnUwdr-92">
          <mxGeometry relative="1" as="geometry" />
        </mxCell>
        <mxCell id="I9sJd5rkt-ugpkNnUwdr-89" value="行为字段" style="rounded=0;whiteSpace=wrap;html=1;" vertex="1" parent="1">
          <mxGeometry x="1802" y="847" width="60" height="20" as="geometry" />
        </mxCell>
        <mxCell id="I9sJd5rkt-ugpkNnUwdr-94" style="rounded=0;orthogonalLoop=1;jettySize=auto;html=1;exitX=0.5;exitY=1;exitDx=0;exitDy=0;entryX=0.5;entryY=0;entryDx=0;entryDy=0;" edge="1" parent="1" source="I9sJd5rkt-ugpkNnUwdr-90" target="I9sJd5rkt-ugpkNnUwdr-91">
          <mxGeometry relative="1" as="geometry" />
        </mxCell>
        <mxCell id="I9sJd5rkt-ugpkNnUwdr-90" value="属性字段" style="rounded=0;whiteSpace=wrap;html=1;" vertex="1" parent="1">
          <mxGeometry x="1874" y="847" width="60" height="20" as="geometry" />
        </mxCell>
        <mxCell id="I9sJd5rkt-ugpkNnUwdr-100" style="edgeStyle=none;rounded=0;orthogonalLoop=1;jettySize=auto;html=1;exitX=0.5;exitY=1;exitDx=0;exitDy=0;" edge="1" parent="1" source="I9sJd5rkt-ugpkNnUwdr-91" target="I9sJd5rkt-ugpkNnUwdr-97">
          <mxGeometry relative="1" as="geometry" />
        </mxCell>
        <mxCell id="I9sJd5rkt-ugpkNnUwdr-91" value="根据属性类型，复用原先标签能力，动态选择渲染模板" style="rounded=0;whiteSpace=wrap;html=1;" vertex="1" parent="1">
          <mxGeometry x="1912" y="944" width="120" height="60" as="geometry" />
        </mxCell>
        <mxCell id="I9sJd5rkt-ugpkNnUwdr-99" style="edgeStyle=none;rounded=0;orthogonalLoop=1;jettySize=auto;html=1;exitX=0.5;exitY=1;exitDx=0;exitDy=0;entryX=0.25;entryY=0;entryDx=0;entryDy=0;" edge="1" parent="1" source="I9sJd5rkt-ugpkNnUwdr-92" target="I9sJd5rkt-ugpkNnUwdr-97">
          <mxGeometry relative="1" as="geometry" />
        </mxCell>
        <mxCell id="I9sJd5rkt-ugpkNnUwdr-92" value="行为类标签渲染模板" style="rounded=0;whiteSpace=wrap;html=1;" vertex="1" parent="1">
          <mxGeometry x="1713" y="944" width="120" height="60" as="geometry" />
        </mxCell>
        <mxCell id="I9sJd5rkt-ugpkNnUwdr-102" style="edgeStyle=none;rounded=0;orthogonalLoop=1;jettySize=auto;html=1;exitX=0.5;exitY=1;exitDx=0;exitDy=0;entryX=0.5;entryY=0;entryDx=0;entryDy=0;" edge="1" parent="1" source="I9sJd5rkt-ugpkNnUwdr-97" target="I9sJd5rkt-ugpkNnUwdr-101">
          <mxGeometry relative="1" as="geometry" />
        </mxCell>
        <mxCell id="I9sJd5rkt-ugpkNnUwdr-97" value="合并生成查询sql" style="rounded=0;whiteSpace=wrap;html=1;" vertex="1" parent="1">
          <mxGeometry x="1819" y="1089" width="120" height="60" as="geometry" />
        </mxCell>
        <mxCell id="I9sJd5rkt-ugpkNnUwdr-108" style="edgeStyle=none;rounded=0;orthogonalLoop=1;jettySize=auto;html=1;exitX=0.5;exitY=1;exitDx=0;exitDy=0;fontSize=16;" edge="1" parent="1" source="I9sJd5rkt-ugpkNnUwdr-101" target="I9sJd5rkt-ugpkNnUwdr-110">
          <mxGeometry relative="1" as="geometry">
            <mxPoint x="2023.875" y="1460.625" as="targetPoint" />
          </mxGeometry>
        </mxCell>
        <mxCell id="I9sJd5rkt-ugpkNnUwdr-101" value="根据数据量，分批执行" style="rounded=0;whiteSpace=wrap;html=1;fillColor=none;" vertex="1" parent="1">
          <mxGeometry x="1819" y="1215" width="120" height="60" as="geometry" />
        </mxCell>
        <mxCell id="I9sJd5rkt-ugpkNnUwdr-109" style="edgeStyle=none;rounded=0;orthogonalLoop=1;jettySize=auto;html=1;exitX=0.5;exitY=1;exitDx=0;exitDy=0;fontSize=16;" edge="1" parent="1" source="I9sJd5rkt-ugpkNnUwdr-104" target="I9sJd5rkt-ugpkNnUwdr-110">
          <mxGeometry relative="1" as="geometry">
            <mxPoint x="2082.625" y="1458.125" as="targetPoint" />
          </mxGeometry>
        </mxCell>
        <mxCell id="I9sJd5rkt-ugpkNnUwdr-104" value="正常执行" style="rounded=0;whiteSpace=wrap;html=1;" vertex="1" parent="1">
          <mxGeometry x="2145" y="1213" width="120" height="60" as="geometry" />
        </mxCell>
        <mxCell id="I9sJd5rkt-ugpkNnUwdr-105" value="&lt;font style=&quot;font-size: 14px;&quot;&gt;将行为类标签，从规则树中拆出&lt;/font&gt;" style="text;html=1;align=center;verticalAlign=middle;resizable=0;points=[];autosize=1;strokeColor=none;fillColor=none;fontSize=16;" vertex="1" parent="1">
          <mxGeometry x="1797" y="629" width="206" height="24" as="geometry" />
        </mxCell>
        <mxCell id="I9sJd5rkt-ugpkNnUwdr-110" value="合并结果" style="rounded=1;whiteSpace=wrap;html=1;fontSize=16;fillColor=none;" vertex="1" parent="1">
          <mxGeometry x="1994" y="1371" width="120" height="60" as="geometry" />
        </mxCell>
      </root>
    </mxGraphModel>
  </diagram>
</mxfile>
